# xmcd
#
# Track frame offsets:
#       150
#       13998
#       32424
#       42553
#       55979
#       66794
#       80044
#       96572
#       105349
#       119788
#       134301
#       149985
#       163966
#       178388
#       191214
#       207252
#       226240
#       248128
#       270392
#       283242
#
# Disc length: 3976 seconds
#
# Revision: 1
# Processed by: cddbd v1.5.1PL0 Copyright (c) Steve Scherf et al.
# Submitted via: MusiCat 1.1
#
DISCID=430f8614
DTITLE=Beatles - Symphonic
DYEAR=1900
DGENRE=
TTITLE0=Penny lane
TTITLE1=Hey Jude
TTITLE2=Please please me
TTITLE3=Yesterday
TTITLE4=Eleanor Rigby
TTITLE5=A hard day's night
TTITLE6=Michelle
TTITLE7=Lady Madonna
TTITLE8=Day tripper
TTITLE9=Get back
TTITLE10=Something
TTITLE11=I feel me 
TTITLE12=Don't let me down
TTITLE13=Help
TTITLE14=Magical mistry tour
TTITLE15=Love me do
TTITLE16=All my loving
TTITLE17=Julia
TTITLE18=Because
TTITLE19=She's a woman
EXTD=\n\n
EXTT0=
EXTT1=
EXTT2=
EXTT3=
EXTT4=
EXTT5=
EXTT6=
EXTT7=
EXTT8=
EXTT9=
EXTT10=
EXTT11=
EXTT12=
EXTT13=
EXTT14=
EXTT15=
EXTT16=
EXTT17=
EXTT18=
EXTT19=
PLAYORDER=
